<svg xmlns="http://www.w3.org/2000/svg" width="16" height="16" fill="none" viewBox="0 0 16 16">
  <g clip-path="url(#a)">
    <path fill="#313131" d="M10.667 10.667a2 2 0 1 1 0 4 2 2 0 0 1 0-4ZM4 8a2.666 2.666 0 1 1 0 5.333A2.666 2.666 0 1 1 4 8Zm6.667 4a.667.667 0 1 0 0 1.334.667.667 0 0 0 0-1.334ZM4 9.333A1.333 1.333 0 1 0 4 12a1.333 1.333 0 0 0 0-2.666Zm5.667-8a3.666 3.666 0 1 1 0 7.333 3.666 3.666 0 0 1 0-7.333Zm0 1.334a2.333 2.333 0 1 0 0 4.666 2.333 2.333 0 0 0 0-4.666Z"/>
  </g>
  <defs>
    <clipPath id="a">
      <path fill="#fff" d="M0 0h16v16H0z"/>
    </clipPath>
  </defs>
</svg>
