<svg xmlns="http://www.w3.org/2000/svg" width="48" height="48" fill="none" viewBox="0 0 48 48">
  <g clip-path="url(#a)">
    <path fill="#313131" d="M32 32a6 6 0 1 1 0 12 6 6 0 0 1 0-12Zm-20-8c4.42 0 8 3.58 8 8s-3.58 8-8 8-8-3.58-8-8 3.58-8 8-8Zm20 12a2 2 0 1 0 .001 4.001A2 2 0 0 0 32 36Zm-20-8c-2.21 0-4 1.79-4 4s1.79 4 4 4 4-1.79 4-4-1.79-4-4-4ZM29 4c6.076 0 11 4.924 11 11s-4.924 11-11 11-11-4.924-11-11S22.924 4 29 4Zm0 4a7 7 0 1 0 0 14 7 7 0 0 0 0-14Z"/>
  </g>
  <defs>
    <clipPath id="a">
      <path fill="#fff" d="M0 0h48v48H0z"/>
    </clipPath>
  </defs>
</svg>
